<svg width="447" height="169" viewBox="0 0 447 169" fill="none" xmlns="http://www.w3.org/2000/svg">
<path fill-rule="evenodd" clip-rule="evenodd" d="M192.623 13.2285C176.849 13.2285 161.077 13.4531 145.307 13.9023C144.702 14.3611 144.339 14.9601 144.219 15.6992C144.037 52.4366 144.218 89.1744 144.762 125.908C149.914 127.069 155.172 127.468 160.535 127.105C162.196 127.193 163.284 126.393 163.799 124.709H164.885V82.7832C179.218 83.1773 193.36 82.7779 207.309 81.5859C207.98 81.453 208.525 81.0528 208.941 80.3867C209.484 74.4104 209.665 68.4207 209.484 62.418C209.364 61.6789 209.001 61.0799 208.396 60.6211C203.696 60.0233 198.983 59.8246 194.256 60.0235H163.799V33.668H209.484C210.155 33.535 210.699 33.1367 211.115 32.4707C211.841 26.4812 211.841 20.4915 211.115 14.502C210.385 13.6011 209.48 13.2017 208.396 13.3047C203.138 13.2547 197.881 13.2285 192.623 13.2285Z" fill="#355667"/>
<path fill-rule="evenodd" clip-rule="evenodd" d="M64.8108 16.8981C67.5857 19.3874 69.5796 22.581 70.7936 26.4814C73.352 35.7652 76.0714 44.9483 78.9519 54.0333C80.7717 58.5482 80.4095 62.7408 77.8641 66.6113C72.5536 68.474 67.1147 68.8729 61.5475 67.8092C60.6414 66.8113 59.7342 65.8123 58.8281 64.8144C56.4154 56.2398 53.696 47.8544 50.6698 39.6584C48.2158 45.5581 45.8596 51.5476 43.5993 57.627C42.8694 58.5278 41.9632 58.9279 40.8798 58.8249C36.5135 59.0237 32.1624 58.8237 27.8266 58.2259C24.7275 55.1605 23.8203 51.3667 25.1071 46.8458C28.1572 38.167 30.8767 29.3827 33.2654 20.4918C42.9727 10.7828 53.4871 9.58489 64.8108 16.8981Z" fill="#05113C"/>
<path fill-rule="evenodd" clip-rule="evenodd" d="M98.5316 121.116C98.7644 123.085 98.4011 124.882 97.4439 126.507C91.2795 127.306 85.1162 127.306 78.9517 126.507C78.0761 125.173 77.3505 123.777 76.7762 122.314C74.3809 115.201 72.2054 108.013 70.2496 100.752C64.4365 100.95 58.6354 100.75 52.8452 100.153C49.4514 97.2681 48.0014 93.4756 48.4941 88.7726C53.1911 79.0695 60.625 75.0757 70.7935 76.7935C79.1824 77.6069 85.3468 81.9996 89.2856 89.9705C92.0801 100.502 95.1617 110.884 98.5316 121.116Z" fill="#06123E"/>
<path fill-rule="evenodd" clip-rule="evenodd" d="M21.3 70.804C28.7958 69.7307 33.8725 72.9243 36.5288 80.3873C36.7029 82.4226 36.5223 84.4195 35.9849 86.3768C32.5095 94.0662 29.7901 102.053 27.8266 110.335C25.8621 116.26 23.3243 121.849 20.2122 127.106C14.3992 127.305 8.59808 127.105 2.80787 126.507C1.38941 125.544 0.66387 124.146 0.632324 122.314C1.51124 118.61 2.59902 115.016 3.89564 111.533C7.00885 102.846 9.90993 94.0614 12.5978 85.1789C14.2588 79.3787 17.1599 74.587 21.3 70.804Z" fill="#05113B"/>
<path fill-rule="evenodd" clip-rule="evenodd" d="M242.118 73.1997C242.299 90.773 242.118 108.343 241.574 125.908C235.682 127.272 229.7 127.472 223.626 126.507C223.082 125.908 222.538 125.309 221.994 124.71C221.45 104.749 221.268 84.7835 221.45 64.8144C221.268 44.4464 221.45 24.0819 221.994 3.7211C222.401 2.62381 222.945 1.62476 223.626 0.726328C229.064 -0.0726759 234.503 -0.0726759 239.942 0.726328C240.486 1.32528 241.03 1.92424 241.574 2.52319C242.118 26.0788 242.299 49.6381 242.118 73.1997Z" fill="#091442"/>
<path fill-rule="evenodd" clip-rule="evenodd" d="M120.287 38.4605C124.191 39.1697 126.729 41.5655 127.902 45.6479C128.083 72.4044 127.902 99.1573 127.358 125.908C126.628 126.809 125.722 127.209 124.638 127.106C119.49 127.437 114.413 127.037 109.41 125.908C108.322 98.7668 107.96 71.6138 108.322 44.45C111.034 39.565 115.023 37.5693 120.287 38.4605Z" fill="#06103C"/>
<path fill-rule="evenodd" clip-rule="evenodd" d="M130.077 8.51272C131.477 17.8372 128.214 23.8268 120.287 26.4813C118.082 26.6754 115.907 26.4753 113.761 25.8824C105.189 19.7563 104.101 12.3688 110.497 3.72109C118.292 -0.503932 124.819 1.09288 130.077 8.51272Z" fill="#061341"/>
<path fill-rule="evenodd" clip-rule="evenodd" d="M121.375 143.876C125.649 144.992 128.549 147.786 130.077 152.262C131.064 165.316 125.625 170.707 113.761 168.433C111.457 167.177 109.645 165.38 108.322 163.043C106.872 158.251 106.872 153.46 108.322 148.668C111.73 144.382 116.081 142.785 121.375 143.876Z" fill="#05123E"/>
<path fill-rule="evenodd" clip-rule="evenodd" d="M411.81 101.95C412.535 108.338 413.26 108.338 413.985 101.95C417.489 80.531 421.84 59.3676 427.039 38.4605C433.303 38.1179 439.467 38.518 445.531 39.6584C446.055 40.7557 446.417 41.9536 446.619 43.2521C441.852 60.7212 437.501 78.2909 433.565 95.96C430.376 106.003 427.838 116.386 425.951 127.106C417.966 127.304 409.989 127.106 402.02 126.507C400.272 119.783 398.459 113.194 396.581 106.741C394.573 95.8906 392.217 85.1094 389.511 74.3977C386.447 86.2198 383.728 98.1989 381.352 110.335C379.28 115.602 377.829 121.192 377.001 127.106C369.025 127.106 361.047 127.106 353.07 127.106C350.391 114.133 347.491 101.355 344.368 88.7726C341.28 73.1698 338.017 57.597 334.578 42.0542C334.696 40.9258 335.058 39.9279 335.666 39.0594C341.467 38.2604 347.269 38.2604 353.07 39.0594C353.614 39.6584 354.158 40.2573 354.702 40.8563C359.367 61.4603 363.355 82.2236 366.667 103.147C370.713 81.7325 375.608 60.5703 381.352 39.6584C387.12 38.2652 392.922 38.0664 398.757 39.0594C404.11 59.7449 408.461 80.7083 411.81 101.95Z" fill="#081343"/>
<path fill-rule="evenodd" clip-rule="evenodd" d="M293.87 30.8491L291.957 31.0987C291.923 31.1526 291.772 31.1662 291.621 31.1287C291.47 31.0911 291.289 31.1057 291.219 31.1617C291.149 31.2176 290.617 31.32 290.037 31.3895C289.457 31.4588 288.982 31.5493 288.982 31.5903C288.982 31.6314 288.485 31.7451 287.877 31.8438C287.269 31.9425 286.748 32.0564 286.719 32.0969C286.69 32.1374 286.273 32.253 285.792 32.3539C285.311 32.4549 284.871 32.5727 284.815 32.6155C284.758 32.6583 284.388 32.7782 283.992 32.8812C283.595 32.9842 283.248 33.0998 283.22 33.1372C283.191 33.1746 282.925 33.2629 282.628 33.3332C282.331 33.4034 282.088 33.492 282.088 33.5302C282.088 33.5683 281.764 33.6829 281.368 33.7847C280.972 33.8864 280.647 34.0063 280.647 34.0514C280.647 34.0967 280.439 34.1856 280.184 34.2494C279.93 34.3133 279.721 34.4139 279.721 34.4726C279.721 34.5313 279.681 34.5551 279.632 34.5252C279.584 34.4951 279.354 34.5617 279.123 34.6728C278.892 34.7839 278.631 34.8752 278.543 34.8752C278.455 34.8752 278.384 34.9178 278.384 34.9696C278.384 35.0213 278.152 35.1405 277.869 35.234C277.586 35.3276 277.355 35.4375 277.355 35.4782C277.355 35.5189 277.123 35.6353 276.84 35.7365C276.557 35.8376 276.326 35.9532 276.326 35.9927C276.326 36.0321 276.094 36.1477 275.811 36.2489C275.528 36.3502 275.297 36.4672 275.297 36.509C275.297 36.5507 275.114 36.6448 274.891 36.7183C274.667 36.7919 274.464 36.9054 274.438 36.971C274.413 37.0365 274.202 37.1526 273.97 37.229C273.738 37.3053 273.548 37.4078 273.548 37.4565C273.548 37.5051 273.44 37.5856 273.309 37.6354C273.085 37.7204 272.397 38.1427 272.149 38.3477C272.087 38.3987 271.89 38.516 271.711 38.608C271.532 38.7 271.387 38.8109 271.387 38.8544C271.387 38.898 271.221 38.9931 271.02 39.0659C270.818 39.1386 270.628 39.2631 270.597 39.3426C270.566 39.4221 270.495 39.4874 270.438 39.4874C270.34 39.4874 269.337 40.1722 269.226 40.3152C269.197 40.3518 269.024 40.4579 268.84 40.5517C268.656 40.6455 268.505 40.7574 268.505 40.8002C268.505 40.8431 268.36 40.9635 268.183 41.068C267.873 41.2499 267.676 41.4093 267.216 41.8495C267.1 41.9597 266.967 42.0496 266.919 42.0496C266.871 42.0496 266.73 42.1535 266.605 42.2802C266.481 42.407 266.268 42.5997 266.13 42.7081C264.695 43.8457 261.253 47.2735 260.111 48.7033C260.002 48.8398 259.809 49.0525 259.682 49.1762C259.554 49.3 259.45 49.4404 259.45 49.4884C259.45 49.5364 259.359 49.6692 259.246 49.784C258.792 50.2475 258.417 50.7156 258.362 50.887C258.33 50.9868 258.262 51.0687 258.211 51.0687C258.159 51.0687 258.041 51.2186 257.946 51.4018C257.852 51.585 257.745 51.7579 257.709 51.7861C257.565 51.8971 256.878 52.8959 256.878 52.9932C256.878 53.05 256.812 53.1216 256.732 53.1521C256.652 53.1827 256.528 53.3722 256.455 53.573C256.381 53.7739 256.286 53.9385 256.242 53.9385C256.199 53.9385 256.087 54.084 255.995 54.2619C255.902 54.4397 255.785 54.6359 255.733 54.6974C255.528 54.9444 255.104 55.6298 255.018 55.8535C254.968 55.9839 254.888 56.0907 254.839 56.0907C254.79 56.0907 254.687 56.2801 254.61 56.5117C254.534 56.7433 254.417 56.953 254.351 56.9781C254.285 57.0032 254.171 57.2058 254.098 57.4285C254.024 57.6512 253.929 57.8331 253.887 57.8331C253.845 57.8331 253.728 58.0637 253.626 58.3455C253.525 58.6274 253.409 58.858 253.369 58.858C253.329 58.858 253.214 59.0886 253.112 59.3704C253.01 59.6523 252.893 59.8829 252.853 59.8829C252.812 59.8829 252.701 60.1134 252.607 60.3953C252.513 60.6771 252.394 60.9077 252.342 60.9077C252.29 60.9077 252.247 60.9793 252.247 61.0664C252.247 61.1534 252.156 61.4135 252.044 61.6442C251.932 61.8747 251.866 62.1028 251.896 62.1515C251.926 62.2001 251.901 62.2402 251.843 62.2402C251.784 62.2402 251.683 62.4477 251.619 62.7014C251.555 62.9551 251.466 63.1626 251.42 63.1626C251.375 63.1626 251.255 63.4854 251.153 63.88C251.05 64.2746 250.936 64.5974 250.897 64.5974C250.858 64.5974 250.77 64.8395 250.699 65.1355C250.629 65.4314 250.54 65.6966 250.502 65.7248C250.465 65.753 250.349 66.0989 250.245 66.4935C250.142 66.8881 250.022 67.257 249.979 67.3134C249.936 67.3697 249.817 67.8079 249.716 68.287C249.615 68.7662 249.499 69.1815 249.458 69.21C249.417 69.2385 249.303 69.7573 249.204 70.363C249.105 70.9687 248.99 71.4642 248.949 71.4642C248.909 71.4642 248.818 71.937 248.748 72.5148C248.678 73.0926 248.575 73.6224 248.519 73.6921C248.463 73.7618 248.448 73.9419 248.486 74.0923C248.525 74.2427 248.511 74.3932 248.458 74.4268C247.928 74.7611 247.928 89.0754 248.458 89.4097C248.512 89.4433 248.524 89.5937 248.486 89.7441C248.449 89.8945 248.463 90.0746 248.519 90.1443C248.574 90.214 248.677 90.7324 248.746 91.2961C248.816 91.8598 248.906 92.344 248.946 92.3722C248.986 92.4003 249.102 92.9077 249.204 93.4996C249.307 94.0915 249.422 94.5989 249.461 94.627C249.5 94.6552 249.615 95.0703 249.716 95.5495C249.818 96.0286 249.937 96.4667 249.981 96.523C250.025 96.5793 250.141 96.9484 250.239 97.3429C250.336 97.7376 250.451 98.1066 250.493 98.1629C250.535 98.2192 250.629 98.4845 250.702 98.7522C250.775 99.02 250.864 99.2391 250.9 99.2391C250.937 99.2391 251.051 99.5619 251.153 99.9565C251.255 100.351 251.371 100.674 251.412 100.674C251.452 100.674 251.541 100.881 251.609 101.135C251.677 101.389 251.775 101.596 251.826 101.596C251.878 101.596 251.896 101.689 251.866 101.801C251.837 101.914 251.861 102.006 251.916 102.006C251.973 102.006 252.081 102.214 252.156 102.468C252.231 102.721 252.325 102.929 252.365 102.929C252.404 102.929 252.514 103.159 252.608 103.441C252.702 103.723 252.813 103.954 252.855 103.954C252.897 103.954 253.011 104.207 253.109 104.517C253.207 104.827 253.328 105.081 253.376 105.081C253.425 105.081 253.545 105.289 253.642 105.542C253.74 105.796 253.852 106.003 253.892 106.003C253.932 106.003 254.025 106.188 254.1 106.413C254.175 106.639 254.263 106.824 254.297 106.825C254.33 106.825 254.449 107.021 254.562 107.26C254.674 107.499 254.795 107.718 254.831 107.746C254.866 107.774 255.006 107.999 255.141 108.246L255.521 108.938C255.594 109.071 255.696 109.181 255.745 109.181C255.795 109.181 255.868 109.283 255.908 109.409C255.949 109.535 256.138 109.869 256.33 110.152L256.804 110.858C256.873 110.963 257.057 111.211 257.213 111.41C257.368 111.608 257.496 111.804 257.496 111.845C257.496 111.885 257.61 112.051 257.75 112.215C258.222 112.764 258.267 112.822 258.455 113.109C258.694 113.477 258.941 113.78 259.168 113.984C259.267 114.073 259.348 114.202 259.348 114.271C259.348 114.34 259.45 114.467 259.575 114.555C259.7 114.642 259.851 114.799 259.91 114.904C260.068 115.186 260.841 116.059 261.689 116.913C262.099 117.326 262.435 117.69 262.435 117.722C262.435 117.798 263.456 118.815 263.532 118.815C263.564 118.815 263.927 119.149 264.338 119.558C264.75 119.966 265.245 120.426 265.439 120.579C265.968 120.995 266.367 121.339 266.658 121.629C266.801 121.772 266.958 121.889 267.006 121.889C267.054 121.889 267.198 121.993 267.327 122.12C267.615 122.404 267.758 122.517 268.147 122.769C268.44 122.958 268.574 123.063 269.021 123.452C269.134 123.551 269.261 123.632 269.304 123.632C269.346 123.632 269.543 123.77 269.741 123.939C269.939 124.108 270.129 124.246 270.162 124.246C270.196 124.246 270.358 124.362 270.522 124.503C270.687 124.644 270.859 124.759 270.905 124.759C270.952 124.759 271.141 124.874 271.327 125.015C271.512 125.156 271.715 125.272 271.778 125.272C271.84 125.272 271.929 125.334 271.974 125.41C272.019 125.486 272.177 125.613 272.326 125.692C273.164 126.138 273.502 126.331 273.548 126.387C273.576 126.422 273.785 126.542 274.011 126.654C274.238 126.766 274.446 126.884 274.474 126.916C274.503 126.948 274.688 127.039 274.886 127.118C275.084 127.198 275.333 127.343 275.44 127.441C275.547 127.538 275.767 127.647 275.929 127.683C276.091 127.719 276.224 127.784 276.224 127.828C276.224 127.872 276.443 127.991 276.712 128.092C276.981 128.193 277.224 128.308 277.253 128.347C277.281 128.386 277.547 128.498 277.844 128.596C278.141 128.693 278.384 128.809 278.384 128.854C278.384 128.898 278.593 128.993 278.848 129.064C279.102 129.135 279.311 129.227 279.311 129.269C279.311 129.311 279.612 129.432 279.979 129.536C280.347 129.641 280.648 129.761 280.648 129.802C280.648 129.843 280.845 129.925 281.086 129.986C281.376 130.064 281.66 130.165 281.934 130.289C282.161 130.396 282.52 130.515 282.732 130.553C282.944 130.592 283.118 130.657 283.118 130.698C283.118 130.739 283.477 130.859 283.915 130.966C284.354 131.072 284.736 131.189 284.764 131.226C284.792 131.262 285.209 131.375 285.69 131.477C286.171 131.579 286.588 131.696 286.617 131.737C286.646 131.779 287.178 131.894 287.8 131.994C288.423 132.094 288.955 132.208 288.983 132.247C289.011 132.287 289.474 132.378 290.012 132.45C290.55 132.522 291.013 132.614 291.041 132.654C291.466 133.263 307.51 133.261 307.917 132.652C307.945 132.61 308.443 132.517 309.023 132.447C309.603 132.377 310.078 132.288 310.078 132.25C310.078 132.212 310.587 132.096 311.209 131.993C311.832 131.89 312.341 131.774 312.341 131.735C312.341 131.696 312.758 131.58 313.267 131.477C313.777 131.374 314.194 131.262 314.194 131.227C314.194 131.192 314.564 131.077 315.017 130.971C315.47 130.865 315.84 130.744 315.84 130.703C315.84 130.662 316.118 130.57 316.457 130.498C316.797 130.426 317.075 130.334 317.075 130.292C317.075 130.251 317.353 130.14 317.692 130.045C318.032 129.95 318.31 129.84 318.31 129.799C318.31 129.759 318.611 129.641 318.978 129.536C319.346 129.431 319.647 129.315 319.647 129.278C319.647 129.241 319.856 129.149 320.11 129.074C320.365 128.999 320.573 128.898 320.573 128.85C320.573 128.801 320.828 128.688 321.139 128.597C321.451 128.507 321.705 128.391 321.705 128.338C321.705 128.286 321.763 128.242 321.834 128.241C322.002 128.239 324.318 127.076 324.484 126.911C324.512 126.883 324.72 126.767 324.947 126.655C325.173 126.542 325.419 126.392 325.494 126.322C325.569 126.251 325.68 126.193 325.742 126.193C325.803 126.193 325.996 126.085 326.172 125.952C326.347 125.819 326.594 125.678 326.722 125.638C326.849 125.598 326.953 125.524 326.953 125.474C326.953 125.424 327.127 125.303 327.339 125.204C327.551 125.106 327.762 124.966 327.807 124.892C327.852 124.819 327.948 124.759 328.019 124.759C328.09 124.759 328.24 124.678 328.35 124.579C328.461 124.48 328.829 124.216 329.167 123.991C329.506 123.767 329.82 123.525 329.865 123.453C329.911 123.382 330.014 123.324 330.096 123.324C330.177 123.324 330.302 123.231 330.373 123.119C330.444 123.006 330.548 122.913 330.605 122.912C330.662 122.912 330.86 122.784 331.043 122.63C331.227 122.476 331.502 122.258 331.653 122.145C331.847 121.994 332.033 121.831 332.208 121.658C332.363 121.503 332.52 121.376 332.558 121.376C332.653 121.376 333.772 120.4 334.347 119.814C334.61 119.546 334.857 119.327 334.897 119.327C334.991 119.327 337.037 117.289 337.038 117.195C337.038 117.155 337.258 116.909 337.527 116.647C338.115 116.074 339.095 114.96 339.095 114.865C339.095 114.827 339.223 114.671 339.378 114.517C339.552 114.342 339.715 114.157 339.867 113.963C339.98 113.813 340.199 113.54 340.354 113.357C340.509 113.173 340.636 112.977 340.637 112.92C340.638 112.863 340.731 112.759 340.845 112.689C340.958 112.618 341.05 112.494 341.05 112.413C341.05 112.331 341.109 112.228 341.181 112.183C341.252 112.138 341.495 111.825 341.721 111.488C341.946 111.151 342.212 110.785 342.311 110.674C342.41 110.564 342.491 110.416 342.491 110.344C342.491 110.273 342.551 110.178 342.625 110.133C342.699 110.088 342.84 109.878 342.939 109.667C343.037 109.456 343.159 109.283 343.209 109.283C343.259 109.283 343.333 109.179 343.374 109.052C343.414 108.925 343.556 108.679 343.689 108.504C343.823 108.33 343.932 108.137 343.932 108.076C343.932 108.015 343.99 107.904 344.06 107.83C344.131 107.755 344.282 107.51 344.395 107.284C344.508 107.059 344.624 106.851 344.652 106.823C344.817 106.658 345.985 104.351 345.987 104.184C345.988 104.113 346.032 104.056 346.085 104.056C346.138 104.056 346.255 103.802 346.345 103.492C346.436 103.182 346.549 102.928 346.598 102.928C346.647 102.928 346.749 102.721 346.824 102.467C346.899 102.213 346.991 102.006 347.028 102.006C347.066 102.006 347.182 101.706 347.287 101.34C347.392 100.973 347.512 100.673 347.552 100.673C347.592 100.673 347.703 100.397 347.798 100.058C347.894 99.7202 348.006 99.4435 348.047 99.4435C348.088 99.4435 348.181 99.1668 348.253 98.8286C348.325 98.4903 348.418 98.2136 348.459 98.2136C348.5 98.2136 348.621 97.8446 348.728 97.3939C348.835 96.9432 348.95 96.574 348.985 96.574C349.02 96.574 349.133 96.1587 349.236 95.6514C349.34 95.144 349.456 94.729 349.495 94.729C349.534 94.729 349.651 94.2216 349.755 93.6015C349.858 92.9815 349.974 92.4742 350.013 92.4742C350.051 92.4742 350.14 92.0015 350.21 91.4237C350.281 90.8459 350.373 90.35 350.416 90.3218C351.029 89.9157 351.031 73.9339 350.418 73.5135C350.377 73.4853 350.284 73.0241 350.212 72.4886C350.14 71.9531 350.048 71.4919 350.009 71.4637C349.97 71.4356 349.854 70.9054 349.754 70.2856C349.654 69.6657 349.539 69.1354 349.497 69.1069C349.455 69.0786 349.337 68.6632 349.235 68.184C349.133 67.7049 349.02 67.2898 348.983 67.2616C348.946 67.2335 348.829 66.853 348.722 66.4161C348.615 65.9792 348.494 65.6218 348.453 65.6218C348.413 65.6218 348.347 65.4488 348.308 65.2374C348.269 65.026 348.15 64.6686 348.043 64.4431C347.918 64.1699 347.816 63.8871 347.738 63.5975C347.677 63.358 347.594 63.162 347.553 63.162C347.512 63.162 347.392 62.8622 347.287 62.4958C347.181 62.1294 347.061 61.8296 347.019 61.8296C346.976 61.8296 346.884 61.6221 346.812 61.3684C346.741 61.1148 346.646 60.9072 346.601 60.9072C346.557 60.9072 346.44 60.6651 346.342 60.3692C346.245 60.0732 346.132 59.808 346.093 59.7798C346.054 59.7517 345.939 59.5095 345.837 59.2418C345.735 58.974 345.616 58.755 345.572 58.755C345.527 58.755 345.459 58.612 345.421 58.437C345.382 58.262 345.272 58.0411 345.177 57.9458C345.081 57.8506 344.938 57.6129 344.859 57.4182C344.78 57.2235 344.688 57.0408 344.656 57.0126C344.624 56.9844 344.506 56.7782 344.393 56.5542C344.28 56.3303 344.15 56.0997 344.103 56.0418C343.942 55.8414 343.524 55.1155 343.409 54.8347C343.346 54.6797 343.254 54.5529 343.206 54.5529C343.157 54.5529 343.037 54.3799 342.938 54.1685C342.839 53.9571 342.698 53.7473 342.625 53.7022C342.551 53.6569 342.49 53.562 342.49 53.491C342.49 53.42 342.409 53.2722 342.31 53.1628C342.157 52.9929 341.799 52.4946 341.41 51.9076C341.321 51.7803 341.227 51.6571 341.127 51.5383C340.746 51.0856 340.684 51.0046 340.492 50.7105C340.24 50.3228 340.126 50.1804 339.841 49.8936C339.713 49.7657 339.609 49.622 339.609 49.5741C339.609 49.5261 339.492 49.3702 339.348 49.2272C339.057 48.9374 338.711 48.5403 338.293 48.0135C338.14 47.8203 337.679 47.327 337.268 46.9171C336.858 46.5071 336.522 46.1458 336.522 46.1138C336.522 46.0382 335.501 45.0213 335.425 45.0213C335.393 45.0213 335.028 44.6869 334.613 44.2782C333.756 43.434 332.879 42.6635 332.596 42.5062C332.491 42.4475 332.333 42.2976 332.245 42.1731C332.158 42.0485 332.029 41.9465 331.96 41.9465C331.891 41.9465 331.762 41.8657 331.672 41.7672C331.467 41.5409 331.164 41.2952 330.794 41.0567C330.505 40.8699 330.447 40.8246 329.896 40.3554C329.732 40.2158 329.565 40.1017 329.524 40.1017C329.484 40.1017 329.287 39.9749 329.088 39.8199C328.888 39.6649 328.639 39.4817 328.533 39.4127L327.825 38.9403C327.541 38.7492 327.205 38.5603 327.079 38.5206C326.953 38.4809 326.85 38.4076 326.85 38.3581C326.85 38.3087 326.74 38.208 326.606 38.1344L325.911 37.7563C325.664 37.622 325.437 37.4828 325.409 37.4472C325.381 37.4117 325.161 37.2912 324.922 37.1792C324.682 37.0674 324.485 36.9486 324.484 36.9153C324.484 36.8822 324.298 36.7938 324.071 36.7196C323.845 36.6453 323.66 36.5518 323.66 36.512C323.66 36.4724 323.451 36.3606 323.197 36.2637C322.942 36.1668 322.734 36.0477 322.734 35.9988C322.734 35.9498 322.479 35.8302 322.168 35.7323C321.856 35.6344 321.602 35.5207 321.602 35.4792C321.602 35.4376 321.37 35.327 321.087 35.2335C320.804 35.1399 320.573 35.0308 320.573 34.9913C320.573 34.9519 320.364 34.8581 320.11 34.7832C319.855 34.7084 319.647 34.6009 319.647 34.544C319.647 34.4871 319.554 34.465 319.441 34.4946C319.328 34.524 319.235 34.5068 319.235 34.455C319.235 34.4037 319.027 34.3061 318.772 34.2384C318.517 34.1709 318.309 34.0834 318.309 34.045C318.309 34.0067 317.996 33.8915 317.614 33.7893C317.232 33.6871 316.864 33.5492 316.796 33.4828C316.729 33.4165 316.497 33.3296 316.282 33.2894C316.067 33.2492 315.845 33.1796 315.788 33.1336C315.731 33.0878 315.361 32.9712 314.965 32.8741C314.569 32.7769 314.198 32.6614 314.142 32.6173C314.085 32.5733 313.645 32.4546 313.164 32.3537C312.683 32.2527 312.266 32.1385 312.238 32.0995C312.209 32.0604 311.7 31.9455 311.106 31.8438C310.512 31.7421 310.002 31.626 309.974 31.586C309.946 31.5462 309.46 31.4569 308.894 31.3874C308.328 31.3178 307.807 31.216 307.737 31.1607C307.667 31.1055 307.487 31.0907 307.336 31.1287C307.185 31.1667 307.034 31.1538 307 31.1008C306.759 30.7213 297.592 30.5455 293.87 30.8491ZM300.816 32.6202C300.816 32.681 301.19 32.7227 301.731 32.7227C302.927 32.7227 306.61 33.0199 306.679 33.1219C306.709 33.1657 307.219 33.259 307.813 33.3294C308.407 33.3999 308.94 33.4942 308.997 33.5385C309.053 33.583 309.586 33.6989 310.18 33.7963C310.774 33.8937 311.284 34.0077 311.312 34.0497C311.34 34.0917 311.792 34.2078 312.315 34.308C312.839 34.4082 313.267 34.5257 313.267 34.5685C313.267 34.6112 313.568 34.7033 313.936 34.7725C314.304 34.8415 314.605 34.9342 314.605 34.978C314.605 35.022 314.94 35.1397 315.349 35.2396C315.759 35.3396 316.147 35.4746 316.212 35.5394C316.277 35.6042 316.591 35.7152 316.908 35.7859C317.226 35.8568 317.486 35.9514 317.486 35.9963C317.486 36.0409 317.764 36.1556 318.103 36.2504C318.443 36.3452 318.721 36.4613 318.721 36.5079C318.721 36.5546 318.929 36.6453 319.184 36.7091C319.438 36.7729 319.647 36.8707 319.647 36.9263C319.647 36.9819 319.695 37.0274 319.754 37.0274C319.813 37.0274 320.149 37.1598 320.5 37.3218C320.851 37.4837 321.312 37.6775 321.525 37.7523C321.737 37.8271 321.91 37.9163 321.91 37.9503C321.91 37.9844 322.269 38.194 322.708 38.4164C323.147 38.6388 323.563 38.8745 323.633 38.9406C323.703 39.0068 323.923 39.1142 324.122 39.1795C324.32 39.245 324.483 39.3411 324.483 39.3934C324.483 39.4456 324.668 39.5628 324.895 39.653C325.121 39.7432 325.306 39.8536 325.306 39.8982C325.306 39.9428 325.445 40.0278 325.615 40.0868C325.785 40.1457 325.924 40.231 325.925 40.2761C325.925 40.3213 326.111 40.4465 326.336 40.5541C326.562 40.6619 326.747 40.7834 326.747 40.8244C326.747 40.8655 326.909 40.9753 327.107 41.0689C327.305 41.1623 327.467 41.2831 327.467 41.3369C327.467 41.3907 327.518 41.4346 327.581 41.4346C327.643 41.4346 327.87 41.573 328.085 41.7421C328.299 41.9112 328.524 42.0496 328.584 42.0496C328.645 42.0496 328.744 42.1418 328.805 42.2545C328.865 42.3672 328.964 42.4595 329.023 42.4595C329.082 42.4595 329.345 42.6325 329.608 42.8439L330.276 43.3819L330.742 43.7658L331.306 44.227C331.464 44.3541 331.812 44.6605 332.077 44.9078C332.343 45.155 332.748 45.5104 332.978 45.6977C333.5 46.1238 336.008 48.6133 336.008 48.705C336.008 48.7425 336.251 49.034 336.548 49.353C336.845 49.672 337.193 50.0617 337.32 50.2191L337.783 50.7787L338.169 51.243L338.709 51.9089C338.921 52.1705 339.095 52.4326 339.095 52.4915C339.095 52.5506 339.187 52.6483 339.301 52.7085C339.414 52.7688 339.506 52.8871 339.506 52.9717C339.506 53.0564 339.576 53.1515 339.661 53.1841C339.747 53.2167 339.894 53.4111 339.99 53.6166C340.086 53.8221 340.225 54.0266 340.298 54.0717C340.372 54.1167 340.432 54.2118 340.432 54.2828C340.432 54.3538 340.514 54.5032 340.613 54.6146C340.914 54.9528 341.436 55.7454 341.509 55.976C341.547 56.0953 341.616 56.1932 341.663 56.1932C341.71 56.1932 341.822 56.3777 341.912 56.6032C342.003 56.8287 342.112 57.0136 342.155 57.0142C342.198 57.0147 342.325 57.2222 342.436 57.4754C342.548 57.7285 342.672 57.9356 342.711 57.9356C342.751 57.9356 342.837 58.097 342.902 58.2943C342.967 58.4915 343.054 58.653 343.095 58.653C343.135 58.653 343.255 58.8605 343.359 59.1142C343.464 59.3678 343.59 59.5754 343.638 59.5754C343.686 59.5754 343.725 59.6274 343.725 59.691C343.725 59.8021 344.028 60.4779 344.661 61.779C344.826 62.1172 344.96 62.4746 344.96 62.5733C344.96 62.672 345.004 62.7526 345.058 62.7526C345.111 62.7526 345.233 63.0293 345.328 63.3675C345.424 63.7057 345.535 63.9825 345.575 63.9825C345.615 63.9825 345.733 64.2823 345.839 64.6487C345.944 65.0151 346.06 65.3149 346.096 65.3149C346.133 65.3149 346.22 65.5801 346.291 65.9042C346.362 66.2283 346.482 66.5909 346.558 66.7098C346.634 66.8286 346.754 67.2094 346.826 67.5553C346.898 67.9012 346.987 68.1846 347.025 68.1846C347.062 68.1846 347.178 68.5997 347.281 69.107C347.384 69.6144 347.501 70.0294 347.54 70.0294C347.578 70.0294 347.668 70.3984 347.738 70.8493C347.809 71.3003 347.908 71.6692 347.959 71.6692C348.01 71.6692 348.022 71.7851 347.986 71.9268C347.95 72.0685 347.968 72.2414 348.025 72.3111C348.083 72.3808 348.187 72.8991 348.257 73.4628C348.327 74.0265 348.417 74.5108 348.457 74.539C348.557 74.61 348.762 76.7377 348.838 78.5064C348.873 79.3163 348.941 80.0028 348.989 80.0322C349.102 80.1022 349.102 83.7347 348.989 83.8046C348.941 83.834 348.874 84.5169 348.841 85.3222C348.768 87.0579 348.559 89.2253 348.457 89.2976C348.417 89.3257 348.327 89.81 348.257 90.3737C348.187 90.9374 348.083 91.4558 348.025 91.5255C347.968 91.5952 347.95 91.768 347.986 91.9097C348.022 92.0515 348.009 92.1672 347.959 92.1672C347.908 92.1672 347.809 92.5362 347.738 92.9872C347.668 93.4381 347.579 93.8071 347.54 93.8071C347.502 93.8071 347.384 94.2453 347.278 94.7808C347.172 95.3163 347.055 95.7545 347.017 95.7545C346.979 95.7545 346.889 96.0196 346.817 96.3438C346.744 96.6679 346.624 97.053 346.548 97.1996C346.473 97.3461 346.355 97.6917 346.286 97.9682C346.217 98.2447 346.132 98.4935 346.096 98.5216C346.014 98.5858 345.68 99.6229 345.68 99.8146C345.68 99.8928 345.637 99.9565 345.585 99.9565C345.532 99.9565 345.415 100.21 345.325 100.52C345.234 100.83 345.115 101.084 345.06 101.084C345.005 101.084 344.96 101.164 344.96 101.262C344.96 101.36 344.848 101.671 344.711 101.954C344.115 103.182 343.725 104.047 343.725 104.142C343.725 104.171 343.716 104.198 343.7 104.222C343.685 104.246 343.663 104.266 343.637 104.278C343.588 104.297 343.448 104.52 343.325 104.774C343.01 105.423 342.779 105.841 342.701 105.901C342.664 105.929 342.549 106.137 342.444 106.362C342.34 106.588 342.226 106.795 342.191 106.823C342.157 106.851 342.036 107.059 341.924 107.285C341.811 107.51 341.661 107.731 341.59 107.777C341.519 107.822 341.462 107.901 341.462 107.953C341.462 108.058 340.894 108.906 340.613 109.222C340.514 109.333 340.433 109.482 340.433 109.554C340.433 109.625 340.372 109.72 340.298 109.765C340.225 109.81 340.086 110.015 339.99 110.22C339.895 110.425 339.747 110.62 339.661 110.652C339.576 110.685 339.507 110.767 339.507 110.834C339.507 110.902 339.436 111.03 339.35 111.119C339.109 111.37 338.375 112.329 338.375 112.393C338.375 112.425 338.27 112.562 338.143 112.697C337.494 113.385 337.14 113.798 337.138 113.868C337.137 113.911 336.905 114.176 336.623 114.455C336.341 114.735 336.111 114.993 336.111 115.029C336.111 115.113 332.806 118.405 332.721 118.405C332.686 118.405 332.426 118.634 332.146 118.915C331.865 119.195 331.599 119.426 331.556 119.427C331.486 119.43 331.071 119.782 330.38 120.429C330.244 120.556 330.107 120.66 330.075 120.66C330.018 120.66 329.095 121.353 328.805 121.614C328.72 121.691 328.57 121.783 328.47 121.818C328.371 121.853 328.29 121.928 328.29 121.984C328.29 122.039 328.117 122.165 327.905 122.263C327.692 122.362 327.482 122.502 327.436 122.576C327.391 122.649 327.296 122.709 327.224 122.709C327.153 122.709 327.003 122.79 326.891 122.889C326.574 123.169 325.722 123.734 325.617 123.734C325.565 123.734 325.485 123.792 325.44 123.862C325.395 123.933 325.173 124.082 324.946 124.194C324.72 124.307 324.511 124.427 324.483 124.461C324.455 124.496 324.246 124.609 324.02 124.713C323.794 124.817 323.585 124.931 323.557 124.967C323.508 125.028 323.295 125.145 322.374 125.614C322.147 125.73 321.939 125.854 321.911 125.89C321.882 125.927 321.639 126.039 321.37 126.14C321.102 126.242 320.882 126.357 320.882 126.397C320.882 126.436 320.694 126.525 320.465 126.593C320.235 126.662 319.835 126.83 319.575 126.968C319.315 127.106 319.016 127.219 318.911 127.219C318.806 127.219 318.721 127.264 318.721 127.318C318.721 127.373 318.466 127.492 318.155 127.582C317.844 127.672 317.589 127.789 317.589 127.841C317.589 127.893 317.525 127.936 317.446 127.936C317.259 127.936 316.214 128.267 316.148 128.348C316.12 128.382 315.784 128.493 315.401 128.595C315.018 128.696 314.684 128.814 314.658 128.856C314.632 128.898 314.332 128.991 313.99 129.063C313.649 129.135 313.37 129.226 313.37 129.265C313.37 129.304 312.93 129.422 312.392 129.528C311.855 129.633 311.415 129.75 311.415 129.789C311.415 129.827 311.044 129.916 310.592 129.986C310.139 130.056 309.768 130.155 309.768 130.206C309.768 130.256 309.652 130.268 309.51 130.233C309.368 130.197 309.194 130.215 309.124 130.272C309.054 130.33 308.534 130.433 307.968 130.503C307.402 130.573 306.916 130.663 306.887 130.702C306.815 130.804 304.639 131.012 302.896 131.084C302.088 131.118 301.402 131.184 301.372 131.232C301.302 131.345 297.655 131.345 297.585 131.232C297.555 131.185 296.866 131.117 296.053 131.082C294.277 131.006 292.141 130.802 292.07 130.702C292.041 130.663 291.555 130.573 290.989 130.503C290.423 130.433 289.903 130.329 289.833 130.272C289.763 130.215 289.589 130.197 289.447 130.233C289.305 130.268 289.189 130.256 289.189 130.206C289.189 130.155 288.818 130.056 288.365 129.986C287.913 129.916 287.542 129.827 287.542 129.788C287.542 129.749 287.125 129.634 286.616 129.531C286.107 129.428 285.69 129.313 285.69 129.275C285.69 129.238 285.406 129.149 285.058 129.077C284.711 129.006 284.329 128.886 284.209 128.81C284.09 128.735 283.726 128.615 283.4 128.545C283.075 128.474 282.809 128.387 282.809 128.35C282.809 128.314 282.508 128.199 282.14 128.094C281.772 127.989 281.471 127.871 281.471 127.831C281.471 127.791 281.193 127.681 280.854 127.586C280.514 127.491 280.236 127.37 280.236 127.316C280.236 127.263 280.155 127.219 280.056 127.219C279.957 127.219 279.598 127.085 279.259 126.921C277.952 126.291 277.274 125.989 277.162 125.989C277.099 125.989 277.046 125.948 277.046 125.897C277.046 125.846 276.919 125.754 276.763 125.691C276.461 125.57 275.622 125.123 275.451 124.992C275.395 124.949 275.163 124.821 274.937 124.708C274.71 124.595 274.479 124.453 274.422 124.391C274.366 124.329 274.169 124.22 273.985 124.148C273.801 124.076 273.651 123.98 273.651 123.934C273.651 123.888 273.552 123.82 273.432 123.782C273.201 123.708 272.405 123.189 272.066 122.889C271.954 122.79 271.804 122.709 271.733 122.709C271.661 122.709 271.566 122.652 271.521 122.581C271.475 122.51 271.299 122.384 271.13 122.299C270.96 122.215 270.76 122.065 270.686 121.966C270.612 121.868 270.487 121.787 270.407 121.787C270.327 121.787 270.212 121.695 270.152 121.582C270.092 121.469 269.993 121.377 269.934 121.377C269.875 121.377 269.612 121.204 269.349 120.993L268.681 120.455L268.214 120.071L267.653 119.61C267.495 119.483 267.103 119.136 266.783 118.84C266.463 118.545 266.17 118.302 266.133 118.302C266.04 118.302 263.541 115.804 263.113 115.284C262.925 115.056 262.568 114.652 262.32 114.388C262.072 114.123 261.764 113.777 261.637 113.619L261.174 113.058L260.788 112.594L260.248 111.928C260.036 111.666 259.862 111.404 259.862 111.345C259.862 111.286 259.769 111.188 259.656 111.128C259.543 111.068 259.45 110.969 259.45 110.909C259.45 110.848 259.312 110.624 259.142 110.411C258.972 110.197 258.833 109.971 258.833 109.909C258.833 109.846 258.789 109.796 258.735 109.796C258.681 109.796 258.56 109.634 258.466 109.437C258.372 109.24 258.261 109.078 258.22 109.078C258.18 109.078 258.057 108.894 257.949 108.67C257.841 108.445 257.715 108.26 257.67 108.26C257.624 108.259 257.539 108.12 257.48 107.951C257.421 107.782 257.335 107.644 257.29 107.644C257.245 107.644 257.135 107.459 257.044 107.234C256.954 107.008 256.842 106.824 256.796 106.824C256.751 106.824 256.655 106.663 256.583 106.466C256.512 106.269 256.398 106.05 256.331 105.979C256.264 105.908 256.026 105.493 255.803 105.056C255.58 104.619 255.369 104.261 255.335 104.261C255.301 104.261 255.211 104.088 255.136 103.877C255.061 103.666 254.866 103.206 254.704 102.856C254.541 102.506 254.408 102.172 254.408 102.113C254.408 102.055 254.363 102.007 254.307 102.007C254.251 102.007 254.153 101.799 254.089 101.545C254.024 101.292 253.934 101.084 253.887 101.084C253.84 101.084 253.723 100.807 253.628 100.469C253.533 100.131 253.418 99.8543 253.373 99.8543C253.328 99.8543 253.233 99.5954 253.162 99.279C253.091 98.9626 252.979 98.6508 252.914 98.586C252.849 98.521 252.714 98.1342 252.613 97.7263C252.513 97.3184 252.395 96.9845 252.351 96.9845C252.306 96.9845 252.214 96.6847 252.144 96.3183C252.075 95.9519 251.983 95.6522 251.939 95.6522C251.896 95.6522 251.779 95.2256 251.678 94.7042C251.577 94.1828 251.46 93.733 251.419 93.7048C251.377 93.6767 251.262 93.1694 251.164 92.5775C251.066 91.9856 250.95 91.4552 250.905 91.3988C250.861 91.3425 250.766 90.8121 250.695 90.2202C250.624 89.6283 250.531 89.1199 250.487 89.0907C250.385 89.0219 250.086 85.3535 250.086 84.1625C250.086 83.6232 250.044 83.2509 249.983 83.2509C249.92 83.2509 249.88 82.7556 249.88 81.9698C249.88 81.1839 249.92 80.6886 249.983 80.6886C250.045 80.6886 250.086 80.2994 250.086 79.7257C250.086 78.4953 250.382 74.8167 250.487 74.7463C250.531 74.717 250.625 74.2087 250.695 73.6168C250.766 73.0249 250.861 72.4946 250.905 72.4382C250.95 72.3819 251.066 71.8514 251.164 71.2595C251.262 70.6676 251.376 70.1603 251.417 70.1322C251.459 70.104 251.579 69.6543 251.684 69.1328C251.789 68.6114 251.907 68.1848 251.947 68.1848C251.986 68.1848 252.079 67.8851 252.152 67.5187C252.225 67.1523 252.318 66.8525 252.358 66.8525C252.398 66.8525 252.51 66.5296 252.607 66.135C252.704 65.7404 252.819 65.4176 252.863 65.4176C252.908 65.4176 252.998 65.2011 253.065 64.9366C253.147 64.6289 253.251 64.3277 253.378 64.0355C253.502 63.7575 253.611 63.4733 253.705 63.1841C253.78 62.9471 253.871 62.7529 253.907 62.7529C253.944 62.7529 254.035 62.5453 254.11 62.2917C254.186 62.038 254.283 61.8304 254.327 61.8304C254.372 61.8304 254.408 61.777 254.408 61.7116C254.408 61.55 256.166 58.0383 256.247 58.0381C256.283 58.0378 256.397 57.8303 256.502 57.5769C256.607 57.3235 256.727 57.116 256.769 57.116C256.812 57.116 256.932 56.9084 257.038 56.6547C257.143 56.4011 257.26 56.1935 257.298 56.1935C257.336 56.1935 257.425 56.0552 257.495 55.8861C257.565 55.717 257.663 55.5786 257.712 55.5786C257.761 55.5786 257.868 55.4182 257.95 55.2222C258.032 55.0262 258.195 54.7641 258.312 54.6393C258.429 54.5144 258.524 54.3674 258.524 54.3123C258.524 54.2572 258.595 54.1391 258.681 54.05C258.899 53.8245 259.553 52.9387 259.553 52.8687C259.553 52.8371 259.624 52.7306 259.71 52.632C260.215 52.055 260.376 51.852 260.376 51.7944C260.376 51.7289 260.825 51.1933 261.201 50.8092C261.313 50.6946 261.405 50.5622 261.405 50.5153C261.405 50.4685 261.59 50.2512 261.817 50.0323C262.043 49.8135 262.229 49.5998 262.23 49.5573C262.231 49.5147 262.486 49.2291 262.796 48.9216C263.106 48.6142 263.36 48.3333 263.36 48.2972C263.36 48.211 265.636 45.9445 265.722 45.9445C265.759 45.9445 266.041 45.6916 266.349 45.3824C266.658 45.0731 266.945 44.8194 266.988 44.8187C267.03 44.8181 267.245 44.6327 267.465 44.4072C267.684 44.1817 267.902 43.9972 267.949 43.9972C267.996 43.9972 268.129 43.9058 268.245 43.7938C268.63 43.4189 269.168 42.9723 269.234 42.9723C269.292 42.9723 269.495 42.8117 270.075 42.3087C270.174 42.2228 270.281 42.1524 270.312 42.1524C270.382 42.1524 271.272 41.5011 271.498 41.2838C271.588 41.198 271.706 41.1275 271.762 41.1275C271.817 41.1275 271.965 41.0323 272.09 40.9164C272.215 40.8003 272.479 40.6381 272.675 40.5561C272.872 40.4741 273.033 40.3675 273.033 40.3186C273.033 40.2697 273.172 40.1725 273.342 40.1026C273.511 40.0326 273.65 39.9443 273.65 39.9061C273.65 39.868 273.859 39.7516 274.113 39.647C274.368 39.5425 274.576 39.422 274.576 39.3798C274.576 39.3375 274.785 39.2176 275.039 39.1136C275.294 39.0096 275.502 38.895 275.502 38.8597C275.503 38.7787 279.028 37.0279 279.19 37.0279C279.256 37.0279 279.31 36.9919 279.31 36.9475C279.31 36.9035 279.518 36.8061 279.773 36.7313C280.028 36.6564 280.236 36.5652 280.236 36.5289C280.236 36.4923 280.431 36.402 280.669 36.328C280.959 36.2341 281.245 36.1253 281.524 36.0021C281.756 35.8969 282.163 35.7563 282.428 35.6897C282.694 35.623 282.911 35.5329 282.911 35.4894C282.911 35.4459 283.235 35.3307 283.632 35.2341C284.028 35.1377 284.352 35.0256 284.352 34.9856C284.352 34.9456 284.653 34.8533 285.021 34.7806C285.389 34.7078 285.69 34.6159 285.69 34.5764C285.69 34.537 286.118 34.4188 286.641 34.3143C287.165 34.2098 287.616 34.0901 287.645 34.0488C287.673 34.0078 288.182 33.8941 288.777 33.7967C289.371 33.6993 289.903 33.5833 289.96 33.5389C290.016 33.4945 290.549 33.4006 291.143 33.3299C291.737 33.2588 292.248 33.1662 292.277 33.1223C292.348 33.0179 296.041 32.7231 297.277 32.7231C297.853 32.7231 298.243 32.6816 298.243 32.6206C298.243 32.5579 298.741 32.5181 299.53 32.5181C300.319 32.5181 300.816 32.5573 300.816 32.6202ZM299.144 39.2379C299.101 39.2811 299.067 39.6086 299.067 39.9658C299.067 40.3302 299.022 40.6149 298.964 40.6149C298.9 40.6149 298.861 41.2298 298.861 42.2547C298.861 43.2796 298.899 43.8945 298.964 43.8945C299.028 43.8945 299.067 44.7606 299.067 46.2874V48.6805L300.636 48.8107C301.499 48.8824 302.251 48.9754 302.308 49.0172C302.365 49.0589 302.689 49.1227 303.028 49.1584C304.3 49.2916 305.5 49.4718 305.549 49.5366C305.578 49.5737 306.122 49.6896 306.758 49.7941C307.395 49.8987 307.916 50.0168 307.916 50.0562C307.916 50.0956 308.24 50.1855 308.636 50.2561C309.033 50.3265 309.357 50.4162 309.357 50.4554C309.357 50.4947 309.727 50.6063 310.18 50.704C310.633 50.8017 311.003 50.913 311.003 50.9523C311.003 50.9915 311.327 51.1064 311.723 51.2082C312.12 51.3099 312.444 51.4244 312.444 51.4629C312.444 51.5015 312.745 51.6184 313.113 51.7235C313.48 51.8286 313.781 51.9485 313.781 51.9907C313.781 52.033 313.99 52.1253 314.244 52.1962C314.499 52.2673 314.708 52.3617 314.708 52.4063C314.708 52.4508 314.939 52.5639 315.222 52.6574C315.505 52.751 315.737 52.8626 315.737 52.9054C315.737 52.9481 315.928 53.0461 316.162 53.123C316.396 53.1997 316.639 53.311 316.702 53.3699C316.765 53.4289 316.979 53.5578 317.177 53.6562C317.597 53.8645 317.793 53.9813 318.377 54.3705C318.613 54.5276 318.854 54.6559 318.913 54.6559C318.971 54.6559 319.056 54.7134 319.101 54.7841C319.147 54.8545 319.346 55.0009 319.544 55.1095C319.742 55.2181 319.927 55.3348 319.955 55.3691C319.984 55.4036 320.262 55.6138 320.573 55.8364C320.884 56.0591 321.254 56.3458 321.395 56.4734C321.536 56.601 321.686 56.7059 321.73 56.7059C321.773 56.7059 321.976 56.8903 322.18 57.1158C322.385 57.3413 322.593 57.5258 322.644 57.5258C322.753 57.5258 324.792 59.564 324.792 59.6727C324.792 59.7134 324.919 59.8651 325.075 60.0098C325.438 60.3473 326.026 61.0737 326.026 61.1839C326.026 61.2306 326.119 61.326 326.232 61.3965C326.346 61.4669 326.438 61.5918 326.438 61.6738C326.438 61.7558 326.531 61.8726 326.644 61.9328C326.757 61.9931 326.85 62.0942 326.85 62.1573C326.85 62.2203 326.965 62.4232 327.107 62.6082C327.248 62.7932 327.364 62.9861 327.364 63.0373C327.364 63.0886 327.453 63.2106 327.56 63.3079C327.668 63.4053 327.816 63.6316 327.889 63.8107C327.962 63.9898 328.059 64.1625 328.106 64.1945C328.199 64.2585 328.477 64.7595 329.068 65.9299C329.281 66.3527 329.488 66.7216 329.527 66.7498C329.566 66.778 329.681 67.0547 329.782 67.3648C329.884 67.6748 330.002 67.9515 330.044 67.9797C330.087 68.0079 330.199 68.2962 330.294 68.6203C330.389 68.9444 330.5 69.2096 330.542 69.2096C330.585 69.2096 330.701 69.5555 330.801 69.9783C330.901 70.401 331.02 70.747 331.066 70.747C331.112 70.747 331.209 71.0467 331.282 71.4131C331.355 71.7796 331.446 72.0793 331.485 72.0793C331.523 72.0793 331.639 72.5405 331.743 73.1042C331.846 73.6679 331.961 74.1291 331.997 74.1291C332.034 74.1291 332.126 74.5924 332.201 75.1586C332.276 75.7249 332.375 76.2109 332.42 76.2386C332.465 76.2664 332.474 76.4305 332.44 76.6032C332.402 76.7869 332.423 76.9458 332.489 76.9863C332.555 77.0268 332.656 77.7937 332.731 78.8209C332.803 79.7917 332.898 80.586 332.943 80.586C332.987 80.586 333.024 81.9465 333.024 83.6094C333.024 85.5567 332.987 86.6329 332.921 86.6329C332.864 86.6329 332.818 86.8058 332.819 87.0172C332.821 87.687 332.575 89.4002 332.477 89.4002C332.426 89.4002 332.413 89.5155 332.448 89.6564C332.484 89.7973 332.475 89.9126 332.428 89.9126C332.382 89.9126 332.282 90.2585 332.207 90.6813C332.131 91.104 332.038 91.4499 331.998 91.4499C331.959 91.4499 331.847 91.8189 331.75 92.2698C331.653 92.7208 331.532 93.0897 331.483 93.0897C331.433 93.0897 331.361 93.2397 331.322 93.4229C331.283 93.6061 331.142 93.9968 331.008 94.2912C330.874 94.5856 330.735 94.9431 330.7 95.0855C330.664 95.228 330.601 95.3446 330.559 95.3446C330.518 95.3446 330.398 95.5983 330.292 95.9083C330.186 96.2183 330.069 96.472 330.032 96.472C329.995 96.472 329.882 96.6856 329.782 96.947C329.682 97.2083 329.514 97.5079 329.408 97.6132C329.302 97.7185 329.216 97.8735 329.216 97.9581C329.216 98.0425 329.165 98.1118 329.102 98.1118C329.039 98.1118 329.015 98.1808 329.047 98.2655C329.08 98.3502 329.061 98.4193 329.005 98.4193C328.949 98.4193 328.847 98.5461 328.779 98.7011C328.71 98.8561 328.595 99.0199 328.523 99.0649C328.451 99.1101 328.393 99.1912 328.393 99.2453C328.393 99.2995 328.196 99.6233 327.955 99.9648C327.715 100.306 327.458 100.698 327.384 100.835C327.31 100.972 327.209 101.084 327.159 101.084C327.11 101.084 327.043 101.165 327.011 101.263C326.979 101.362 326.814 101.604 326.644 101.801C326.474 101.999 326.335 102.193 326.335 102.233C326.335 102.274 326.149 102.489 325.923 102.712C325.697 102.935 325.511 103.156 325.51 103.203C325.51 103.25 325.348 103.444 325.15 103.635C324.953 103.826 324.791 104.014 324.791 104.053C324.791 104.148 321.383 107.549 320.958 107.879C320.564 108.184 319.991 108.676 319.687 108.971C319.568 109.087 319.43 109.181 319.382 109.181C319.333 109.181 319.199 109.274 319.084 109.388C318.788 109.681 317.964 110.306 317.871 110.307C317.829 110.308 317.794 99.7466 317.794 86.8379V63.3677H312.701H307.607V69.8758V76.3839H299.529H291.452V58.294V40.2045H290.483C289.95 40.2045 289.498 40.2419 289.479 40.2874C289.46 40.3329 289.008 40.4476 288.475 40.5419C287.941 40.6362 287.478 40.7517 287.446 40.7983C287.414 40.8451 287.132 40.9387 286.821 41.0069C286.509 41.0752 286.123 41.198 285.963 41.2805C285.803 41.3631 285.479 41.4827 285.244 41.5458C285.008 41.6088 284.792 41.6931 284.763 41.733C284.735 41.7728 284.445 41.8878 284.12 41.9882C283.795 42.0887 283.528 42.204 283.528 42.2445C283.528 42.285 283.251 42.4008 282.911 42.5022C282.571 42.6036 282.294 42.7241 282.294 42.7705C282.294 42.8167 282.039 42.9283 281.728 43.0185C281.416 43.1087 281.162 43.2199 281.162 43.2655C281.162 43.311 280.979 43.4087 280.756 43.4823C280.532 43.5557 280.329 43.6693 280.303 43.7349C280.278 43.8004 280.067 43.9166 279.835 43.9929C279.603 44.0692 279.412 44.1718 279.412 44.2205C279.412 44.2691 279.285 44.3565 279.129 44.4147C278.84 44.5231 278.13 44.9717 277.887 45.2008C277.813 45.2712 277.707 45.3289 277.653 45.3289C277.6 45.3289 277.313 45.4916 277.017 45.6905L276.284 46.1773C276.177 46.2461 275.887 46.4524 275.64 46.6357C275.394 46.8188 275.146 46.9688 275.09 46.9688C275.034 46.9688 274.988 47.0158 274.988 47.0739C274.988 47.132 274.871 47.2233 274.728 47.2774C274.585 47.3315 274.441 47.4457 274.408 47.531C274.375 47.6164 274.295 47.6863 274.23 47.6863C274.164 47.6863 273.996 47.7901 273.855 47.9169C273.714 48.0437 273.357 48.3287 273.062 48.5498C272.768 48.7709 272.503 49.0133 272.474 49.0878C272.445 49.1625 272.361 49.2237 272.287 49.2237C272.214 49.2237 271.957 49.4312 271.717 49.6849C271.477 49.9386 271.243 50.1461 271.196 50.1461C271.091 50.1461 267.579 53.6338 267.579 53.7381C267.579 53.7792 267.382 54.023 267.142 54.28C266.901 54.537 266.599 54.8765 266.47 55.0346L265.985 55.6292L265.473 56.2442C265.329 56.4133 265.185 56.6324 265.153 56.731C265.122 56.8297 265.051 56.9104 264.997 56.9104C264.943 56.9104 264.857 57.0141 264.807 57.141C264.757 57.2679 264.642 57.4638 264.553 57.5766C263.998 58.2745 263.772 58.5882 263.772 58.6594C263.772 58.704 263.714 58.8016 263.643 58.8759C263.571 58.9502 263.423 59.1844 263.311 59.3958C263.199 59.6072 263.081 59.7801 263.048 59.7801C263.015 59.7801 262.902 59.9751 262.796 60.2134C262.691 60.4517 262.52 60.7372 262.416 60.8476C262.313 60.9581 262.228 61.1035 262.228 61.1704C262.228 61.2373 262.167 61.3436 262.091 61.4059C262.015 61.4682 261.892 61.7047 261.817 61.9309C261.742 62.1572 261.651 62.3424 261.615 62.3424C261.578 62.3424 261.465 62.5729 261.363 62.8548C261.262 63.1366 261.144 63.3672 261.102 63.3672C261.06 63.3672 260.965 63.5518 260.89 63.7773C260.816 64.0027 260.717 64.1872 260.671 64.1872C260.625 64.1872 260.514 64.4409 260.423 64.7509C260.332 65.0609 260.224 65.3146 260.182 65.3146C260.14 65.3146 260.02 65.6028 259.914 65.9551C259.808 66.3074 259.669 66.6482 259.604 66.7123C259.54 66.7763 259.43 67.0877 259.358 67.4041C259.288 67.7206 259.191 67.9794 259.144 67.9794C259.097 67.9794 259.002 68.2215 258.932 68.5174C258.863 68.8134 258.761 69.1111 258.707 69.179C258.653 69.2469 258.637 69.3475 258.671 69.4026C258.705 69.4576 258.691 69.5284 258.64 69.56C258.589 69.5916 258.486 69.9174 258.413 70.2843C258.34 70.6512 258.25 70.9516 258.213 70.9516C258.177 70.9516 258.062 71.4128 257.958 71.9765C257.854 72.5401 257.736 73.0013 257.697 73.0013C257.657 73.0013 257.566 73.4511 257.494 74.0006C257.422 74.5502 257.327 75.0471 257.282 75.105C257.187 75.2252 256.877 78.3006 256.877 79.1187C256.877 79.4183 256.831 79.6632 256.774 79.6632C256.708 79.6632 256.671 80.6369 256.671 82.3792C256.671 83.873 256.71 85.0952 256.758 85.0952C256.806 85.0952 256.876 85.6371 256.914 86.2994C257.001 87.8268 257.168 89.2888 257.285 89.5535C257.335 89.6662 257.432 90.1505 257.5 90.6297C257.568 91.1088 257.658 91.547 257.699 91.6033C257.741 91.6596 257.856 92.1324 257.956 92.6538C258.056 93.1752 258.168 93.6018 258.206 93.6018C258.244 93.6018 258.337 93.8796 258.412 94.2188C258.488 94.5581 258.588 94.8597 258.635 94.8884C258.682 94.9171 258.694 95.0086 258.662 95.0913C258.63 95.1741 258.648 95.2417 258.701 95.2417C258.755 95.2417 258.856 95.4953 258.926 95.8054C258.995 96.1154 259.088 96.3691 259.131 96.3691C259.174 96.3691 259.296 96.6689 259.401 97.0353C259.507 97.4017 259.621 97.7014 259.655 97.7014C259.689 97.7014 259.8 97.9321 259.902 98.2139C260.004 98.4957 260.12 98.7263 260.159 98.7263C260.199 98.7263 260.315 98.9569 260.417 99.2388C260.518 99.5206 260.636 99.7513 260.678 99.7513C260.72 99.7513 260.81 99.9357 260.878 100.161C260.945 100.387 261.036 100.571 261.079 100.571C261.122 100.571 261.241 100.802 261.343 101.084C261.444 101.365 261.56 101.596 261.599 101.596C261.638 101.596 261.757 101.804 261.862 102.057C261.966 102.311 262.092 102.519 262.14 102.519C262.188 102.519 262.227 102.579 262.227 102.653C262.227 102.727 262.312 102.878 262.415 102.988C262.519 103.099 262.69 103.384 262.795 103.623C262.901 103.861 263.014 104.056 263.047 104.056C263.08 104.056 263.198 104.229 263.309 104.44C263.421 104.652 263.57 104.861 263.641 104.906C263.713 104.952 263.771 105.036 263.771 105.095C263.771 105.206 264.314 106.011 264.62 106.353C264.719 106.464 264.8 106.612 264.8 106.684C264.8 106.755 264.859 106.85 264.931 106.895C265.003 106.94 265.151 107.115 265.259 107.284C265.367 107.453 265.504 107.642 265.565 107.703C265.625 107.764 265.767 107.945 265.88 108.105C265.994 108.266 266.19 108.506 266.318 108.64C266.445 108.773 266.549 108.923 266.549 108.973C266.549 109.022 266.653 109.147 266.781 109.25C266.908 109.353 267.137 109.603 267.29 109.808C267.471 110.043 267.669 110.266 267.882 110.473C268.054 110.635 268.196 110.804 268.196 110.848C268.196 110.995 271.59 114.238 272.106 114.583C272.247 114.678 272.423 114.839 272.498 114.94C272.571 115.042 272.673 115.125 272.724 115.125C272.775 115.125 272.929 115.228 273.065 115.355C273.373 115.641 273.731 115.919 274.217 116.252C274.423 116.393 274.708 116.611 274.852 116.736C274.995 116.861 275.2 116.991 275.307 117.024C275.414 117.058 275.501 117.127 275.501 117.177C275.501 117.227 275.675 117.348 275.887 117.446C276.1 117.545 276.31 117.685 276.355 117.758C276.401 117.832 276.496 117.892 276.567 117.892C276.639 117.892 276.787 117.975 276.897 118.077C277.007 118.179 277.247 118.328 277.431 118.41C277.615 118.491 277.765 118.585 277.765 118.619C277.765 118.653 277.962 118.768 278.203 118.874C278.443 118.98 278.698 119.122 278.769 119.19C278.922 119.336 280.38 120.044 280.527 120.044C280.583 120.044 280.645 120.079 280.664 120.121C280.72 120.247 281.909 120.831 282.269 120.91C282.452 120.95 282.601 121.023 282.601 121.072C282.601 121.121 282.879 121.239 283.219 121.333C283.558 121.428 283.836 121.539 283.836 121.579C283.836 121.618 284.137 121.737 284.505 121.842C284.873 121.946 285.174 122.064 285.174 122.103C285.174 122.142 285.348 122.206 285.56 122.246C285.772 122.285 286.131 122.401 286.357 122.503C286.584 122.606 287.058 122.746 287.412 122.815C287.766 122.884 288.055 122.973 288.055 123.013C288.055 123.052 288.518 123.169 289.084 123.273C289.65 123.376 290.113 123.494 290.113 123.536C290.113 123.577 290.518 123.666 291.014 123.735C291.509 123.804 291.96 123.894 292.017 123.936C292.145 124.029 293.567 124.222 294.795 124.312C295.304 124.349 295.746 124.418 295.777 124.464C295.808 124.511 296.808 124.58 297.999 124.618L300.165 124.687L300.231 124.287C300.268 124.068 300.299 122.037 300.299 119.775L300.3 115.663L299.914 115.607C299.702 115.576 299.019 115.496 298.396 115.429C297.774 115.362 297.172 115.27 297.059 115.225C296.945 115.18 296.228 115.087 295.464 115.02C294.7 114.953 294.044 114.85 294.008 114.792C293.971 114.733 293.844 114.711 293.725 114.742C293.606 114.773 293.487 114.763 293.46 114.72C293.434 114.677 292.994 114.58 292.483 114.505C291.972 114.429 291.554 114.336 291.554 114.298C291.554 114.259 291.137 114.147 290.627 114.049C290.118 113.95 289.701 113.834 289.701 113.79C289.701 113.746 289.458 113.653 289.161 113.583C288.864 113.512 288.598 113.425 288.569 113.388C288.506 113.305 287.467 112.972 287.271 112.972C287.193 112.972 287.129 112.933 287.129 112.884C287.129 112.835 286.874 112.716 286.563 112.618C286.252 112.521 285.997 112.408 285.997 112.368C285.997 112.328 285.754 112.209 285.457 112.104C285.16 111.999 284.893 111.883 284.865 111.846C284.837 111.809 284.457 111.605 284.021 111.393C283.586 111.18 283.215 110.976 283.198 110.939C283.181 110.902 282.982 110.779 282.756 110.666C282.529 110.554 282.298 110.427 282.241 110.384C281.856 110.096 281.046 109.59 280.968 109.59C280.916 109.59 280.847 109.521 280.815 109.436C280.782 109.352 280.687 109.283 280.604 109.283C280.52 109.283 280.391 109.202 280.316 109.103C280.181 108.925 279.91 108.729 279.617 108.597C279.532 108.559 279.402 108.444 279.328 108.341C279.254 108.239 279.155 108.155 279.106 108.155C279.014 108.155 278.654 107.844 277.39 106.669C276.965 106.275 276.505 105.883 276.368 105.8C276.231 105.716 276.118 105.601 276.118 105.544C276.117 105.486 275.828 105.134 275.474 104.76C274.334 103.554 274.061 103.24 274.061 103.14C274.061 103.086 273.979 102.982 273.879 102.909C273.778 102.835 273.613 102.645 273.512 102.486C273.321 102.191 273.105 101.913 272.865 101.656C272.801 101.59 272.673 101.387 272.579 101.207C272.486 101.026 272.375 100.879 272.334 100.879C272.292 100.879 272.195 100.729 272.117 100.545C272.039 100.362 271.919 100.166 271.85 100.11C271.738 100.018 271.57 99.7389 271.086 98.8411C271.007 98.6932 270.912 98.5495 270.875 98.5213C270.838 98.4932 270.723 98.2855 270.619 98.0601C270.514 97.8346 270.397 97.627 270.357 97.5989C270.318 97.5707 270.203 97.3286 270.101 97.0608C270 96.7931 269.884 96.574 269.844 96.574C269.804 96.574 269.71 96.3895 269.636 96.1641C269.561 95.9386 269.465 95.754 269.421 95.754C269.377 95.754 269.268 95.5004 269.177 95.1904C269.086 94.8804 268.977 94.6267 268.934 94.6267C268.891 94.6267 268.767 94.3039 268.658 93.9093C268.55 93.5147 268.43 93.1918 268.392 93.1918C268.355 93.1918 268.239 92.869 268.137 92.4744C268.034 92.0798 267.917 91.7569 267.878 91.7569C267.838 91.7569 267.746 91.4572 267.673 91.0908C267.6 90.7244 267.508 90.4246 267.469 90.4246C267.43 90.4246 267.315 89.998 267.214 89.4766C267.114 88.9551 266.999 88.5054 266.96 88.4772C266.921 88.4491 266.809 87.8726 266.712 87.1961C266.615 86.5197 266.493 85.874 266.44 85.7613C266.062 84.9444 266.078 76.9536 266.458 76.8106C266.508 76.7918 266.548 76.6764 266.548 76.5544C266.545 76.1121 266.899 74.1287 266.98 74.1287C267.026 74.1287 267.063 74.051 267.063 73.956C267.063 73.71 267.382 72.4576 267.476 72.3351C267.518 72.2788 267.588 72.0712 267.629 71.8739C267.67 71.6766 267.79 71.3243 267.895 71.0911C268.021 70.7996 268.128 70.5 268.214 70.1943C268.284 69.9342 268.376 69.7216 268.419 69.7216C268.463 69.7216 268.572 69.4679 268.663 69.1579C268.753 68.8479 268.861 68.5942 268.902 68.5942C268.944 68.5942 269.061 68.3636 269.163 68.0817C269.264 67.7999 269.382 67.5693 269.424 67.5693C269.466 67.5693 269.561 67.3848 269.636 67.1593C269.71 66.9338 269.803 66.7494 269.842 66.7494C269.881 66.7494 270.001 66.5534 270.108 66.3138C270.214 66.0743 270.339 65.8321 270.385 65.7757C270.43 65.7194 270.627 65.4196 270.821 65.1096C271.015 64.7995 271.248 64.4536 271.34 64.3408C271.444 64.2069 271.53 64.0606 271.597 63.9053C271.647 63.7785 271.726 63.6747 271.771 63.6747C271.816 63.6747 271.944 63.5017 272.056 63.2903C272.167 63.0789 272.34 62.8458 272.439 62.772C272.538 62.6983 272.62 62.5819 272.62 62.513C272.62 62.4441 272.701 62.3152 272.8 62.226C272.899 62.137 273.068 61.9538 273.177 61.8188C274.923 59.6401 277.207 57.413 279.36 55.7886L279.877 55.3917C279.935 55.3441 280.12 55.2172 280.288 55.1093C280.457 55.0015 280.68 54.8367 280.784 54.7429C281.422 54.1667 281.366 51.9514 281.366 77.7253V100.981H286.511H291.656V94.2167V87.4524H299.631H307.606V105.542V123.631H308.318C308.709 123.631 309.045 123.595 309.064 123.551C309.083 123.506 309.698 123.388 310.433 123.289C311.167 123.189 311.792 123.072 311.822 123.028C311.852 122.984 312.177 122.888 312.545 122.814C312.913 122.74 313.399 122.598 313.625 122.498C313.852 122.399 314.211 122.285 314.423 122.246C314.635 122.206 314.809 122.142 314.809 122.103C314.809 122.064 315.11 121.946 315.478 121.841C315.845 121.737 316.146 121.622 316.146 121.587C316.146 121.552 316.357 121.462 316.615 121.386C316.873 121.31 317.147 121.184 317.225 121.107C317.303 121.03 317.427 120.966 317.502 120.966C317.644 120.966 319.145 120.257 319.233 120.148C319.262 120.113 319.47 120 319.696 119.895C319.923 119.791 320.131 119.678 320.16 119.643C320.188 119.608 320.407 119.488 320.647 119.376C320.887 119.264 321.084 119.145 321.084 119.112C321.085 119.078 321.271 118.967 321.497 118.865C321.724 118.764 321.909 118.646 321.909 118.604C321.909 118.561 322.048 118.478 322.218 118.42C322.387 118.361 322.526 118.271 322.526 118.22C322.526 118.17 322.711 118.045 322.938 117.943C323.164 117.841 323.349 117.724 323.349 117.683C323.349 117.642 323.511 117.531 323.71 117.438C323.908 117.344 324.07 117.222 324.07 117.167C324.07 117.112 324.185 117.023 324.327 116.969C324.468 116.916 324.584 116.828 324.584 116.774C324.584 116.72 324.668 116.649 324.772 116.616C324.875 116.583 325.05 116.473 325.16 116.371C325.32 116.231 325.489 116.103 325.667 115.988C326.012 115.766 326.444 115.412 326.877 114.998C327.038 114.844 327.233 114.682 327.31 114.639C327.536 114.513 328.467 113.694 329.235 112.947C329.625 112.566 329.977 112.254 330.017 112.254C330.057 112.253 330.344 111.974 330.655 111.634L331.916 110.298C332.298 109.903 332.61 109.547 332.61 109.505C332.61 109.464 332.738 109.312 332.893 109.167C333.049 109.022 333.292 108.731 333.434 108.521C333.575 108.311 333.795 108.021 333.922 107.876C334.05 107.731 334.154 107.58 334.154 107.539C334.154 107.473 334.42 107.108 334.975 106.413C335.088 106.272 335.181 106.101 335.182 106.034C335.182 105.966 335.241 105.874 335.313 105.829C335.384 105.783 335.533 105.574 335.645 105.362C335.756 105.151 335.88 104.978 335.92 104.978C335.96 104.978 336.024 104.877 336.063 104.755C336.103 104.632 336.268 104.348 336.431 104.124C336.593 103.901 336.726 103.655 336.726 103.579C336.726 103.503 336.762 103.441 336.806 103.441C336.85 103.441 336.977 103.234 337.089 102.981C337.201 102.727 337.322 102.52 337.359 102.519C337.396 102.519 337.509 102.288 337.611 102.006C337.713 101.724 337.826 101.493 337.862 101.493C337.898 101.493 337.989 101.309 338.064 101.083C338.139 100.858 338.234 100.673 338.276 100.673C338.318 100.673 338.435 100.443 338.537 100.161C338.639 99.8792 338.757 99.6485 338.799 99.6485C338.842 99.6485 338.955 99.3718 339.05 99.0336C339.145 98.6953 339.256 98.4187 339.296 98.4187C339.336 98.4187 339.455 98.1189 339.56 97.7525C339.665 97.386 339.782 97.0862 339.821 97.0862C339.859 97.0862 339.918 96.9479 339.952 96.7788C339.986 96.6097 340.101 96.2753 340.208 96.0357C340.314 95.7962 340.461 95.312 340.533 94.9596C340.605 94.6073 340.696 94.3191 340.736 94.3191C340.775 94.3191 340.894 93.8579 341.002 93.2942C341.109 92.7305 341.228 92.2692 341.267 92.2692C341.305 92.2692 341.392 91.8657 341.461 91.3724C341.531 90.8792 341.622 90.4295 341.664 90.3732C341.767 90.2356 341.954 88.6913 342.039 87.2729C342.077 86.6387 342.147 86.1198 342.195 86.1198C342.244 86.1198 342.283 84.7823 342.283 83.1476C342.283 81.5129 342.244 80.1754 342.196 80.1754C342.148 80.1754 342.079 79.6566 342.043 79.0224C341.956 77.5022 341.758 75.7683 341.671 75.7683C341.633 75.7683 341.54 75.2841 341.465 74.6922C341.39 74.1003 341.298 73.6161 341.262 73.6161C341.226 73.6161 341.11 73.1318 341.004 72.5399C340.898 71.948 340.782 71.4637 340.744 71.4637C340.706 71.4637 340.591 71.0487 340.488 70.5414C340.385 70.0341 340.269 69.619 340.23 69.619C340.191 69.619 340.1 69.3191 340.027 68.9527C339.954 68.5863 339.858 68.2865 339.814 68.2865C339.769 68.2865 339.651 67.9527 339.55 67.5448C339.45 67.1369 339.312 66.7472 339.243 66.6787C339.174 66.6102 339.086 66.379 339.047 66.165C339.008 65.9511 338.912 65.6782 338.835 65.5593C338.759 65.4405 338.62 65.083 338.527 64.765C338.434 64.4471 338.32 64.1869 338.274 64.1869C338.228 64.1869 338.16 64.0271 338.123 63.8316C338.086 63.6361 337.996 63.4157 337.921 63.3419C337.847 63.2683 337.729 63.0342 337.659 62.8223C337.589 62.6104 337.397 62.1735 337.233 61.8515C337.069 61.5294 336.934 61.2084 336.934 61.1379C336.933 61.0675 336.891 61.0097 336.84 61.0097C336.789 61.0097 336.664 60.7791 336.562 60.4973C336.46 60.2155 336.343 59.9848 336.302 59.9848C336.262 59.9848 336.174 59.8234 336.109 59.6261C336.044 59.4288 335.955 59.2674 335.912 59.2674C335.868 59.2674 335.771 59.0781 335.694 58.8464C335.617 58.6148 335.501 58.4052 335.435 58.3801C335.369 58.3549 335.254 58.1495 335.179 57.9235C335.104 57.6975 334.959 57.4676 334.856 57.4126C334.753 57.3576 334.668 57.2476 334.668 57.1679C334.668 57.0882 334.608 56.9859 334.534 56.9408C334.46 56.8956 334.32 56.7436 334.224 56.6027C334.038 56.3306 333.432 55.6082 333.048 55.1995C332.92 55.0643 332.816 54.9285 332.816 54.8982C332.816 54.8679 332.543 54.5585 332.209 54.211C330.062 51.9785 329.67 51.5835 329.603 51.5822C329.562 51.5817 329.23 51.2808 328.866 50.9145C328.502 50.548 328.171 50.2482 328.131 50.2482C328.091 50.2482 327.879 50.0638 327.659 49.8383C327.44 49.6128 327.233 49.4283 327.201 49.4283C327.169 49.4283 326.904 49.2324 326.613 48.9928L325.944 48.4547C325.836 48.3731 325.731 48.2876 325.63 48.1985C325.534 48.114 325.144 47.84 324.763 47.5896C324.382 47.3393 324.07 47.1029 324.07 47.0642C324.07 47.0256 323.931 46.936 323.761 46.8661C323.591 46.7961 323.452 46.7088 323.452 46.6719C323.452 46.635 323.279 46.5141 323.066 46.4026C322.854 46.2912 322.634 46.1633 322.578 46.1187C322.327 45.9209 321.332 45.3229 321.166 45.2703C321.065 45.2386 320.983 45.1768 320.983 45.1333C320.983 45.0897 320.8 44.9941 320.577 44.9206C320.353 44.8471 320.15 44.7336 320.124 44.668C320.099 44.6024 319.888 44.4863 319.656 44.4099C319.424 44.3336 319.233 44.237 319.233 44.1952C319.233 44.1535 319.002 44.0366 318.719 43.9351C318.436 43.8337 318.204 43.7158 318.204 43.6728C318.204 43.6296 318.019 43.5393 317.793 43.4719C317.566 43.4045 317.381 43.3146 317.381 43.2723C317.381 43.2301 317.127 43.1158 316.815 43.0181C316.504 42.9204 316.249 42.8067 316.249 42.7652C316.249 42.7237 315.948 42.6035 315.581 42.4987C315.213 42.394 314.912 42.2745 314.912 42.2335C314.912 42.1925 314.715 42.11 314.474 42.0496C314.184 41.9713 313.9 41.8698 313.625 41.7459C313.399 41.6394 313.04 41.5205 312.828 41.4818C312.616 41.4432 312.442 41.3649 312.442 41.3083C312.442 41.2515 312.35 41.2294 312.236 41.259C312.123 41.2883 312.03 41.2803 312.03 41.2408C312.03 41.2013 311.752 41.1075 311.411 41.0322C311.07 40.9568 310.769 40.86 310.743 40.817C310.716 40.7739 310.243 40.6553 309.69 40.5536C309.138 40.4519 308.663 40.3373 308.635 40.2994C308.584 40.2315 307.524 40.0168 305.903 39.7462C305.448 39.6704 304.638 39.5745 304.103 39.5335C303.567 39.4924 303.106 39.4241 303.078 39.3821C303.008 39.2769 299.239 39.1385 299.142 39.2373" fill="#11B4E7"/>
</svg>
