<svg width="334" height="335" viewBox="0 0 334 335" fill="none" xmlns="http://www.w3.org/2000/svg">
<path fill-rule="evenodd" clip-rule="evenodd" d="M204.355 0.529356C202.688 0.612756 201.071 1.26956 199.5 2.50006C195.34 9.76306 196.34 16.4291 202.5 22.5001C205.809 25.1591 209.476 27.3261 213.5 29.0001C225.833 29.3331 238.167 29.6671 250.5 30.0001C253.583 30.7861 255.749 32.6191 257 35.5001C257.5 43.1591 257.666 50.8261 257.5 58.5001H81.4996C76.5566 61.4671 76.2236 64.9671 80.4996 69.0001C96.8326 69.3331 113.167 69.6671 129.5 70.0001C130.861 71.5841 131.528 73.4181 131.5 75.5001C132.404 76.2091 132.737 77.2091 132.5 78.5001H118.5C114.522 81.8771 114.522 85.3771 118.5 89.0001C138.5 89.3331 158.5 89.6671 178.5 90.0001C177.133 92.3011 176.466 94.8011 176.5 97.5001H175.5C147.67 98.3321 119.67 98.8321 91.4996 99.0001C87.4016 102.649 87.7346 105.982 92.4996 109C120.165 109.5 147.831 109.667 175.5 109.5C175.232 111.099 175.566 112.432 176.5 113.5V118.5C153.831 118.333 131.164 118.5 108.5 119C104.928 121.626 104.595 124.626 107.5 128C132.5 128.333 157.5 128.667 182.5 129C184.795 132.297 187.462 135.297 190.5 138C168.5 138.333 146.5 138.667 124.5 139C122.393 140.264 121.393 142.097 121.5 144.5C123.236 149.022 126.569 150.688 131.5 149.5H193.5H248.5H293.5C293.5 148.833 293.833 148.5 294.5 148.5C311.294 146.36 323.294 137.693 330.5 122.5C330.796 120.597 331.463 118.93 332.5 117.5C333.801 108.493 333.801 99.4931 332.5 90.5001C327.493 78.8051 319.493 69.8051 308.5 63.5001C302.874 61.6771 297.207 60.0101 291.5 58.5001H268.5C268.666 49.8271 268.5 41.1601 268 32.5001C267.209 31.2551 266.709 29.9221 266.5 28.5001C263.191 24.6911 259.191 21.8581 254.5 20.0001C241.66 19.8311 228.993 19.3311 216.5 18.5001C214.887 18.0561 213.72 17.0561 213 15.5001C214.62 10.2651 213.454 5.76506 209.5 2.00006C207.737 0.936059 206.022 0.445976 204.355 0.529356ZM185.865 68.504C182.698 68.754 179.576 69.0861 176.5 69.5001C182.509 69.3341 188.509 69.5011 194.5 70.0001C191 72.3341 188 75.1681 185.5 78.5001C173.149 78.8321 160.815 78.4991 148.5 77.5001C146.924 75.0211 145.924 72.3541 145.5 69.5001H176.5C179.576 69.0861 182.698 68.754 185.865 68.504ZM258 69.5001C269.166 69.5001 280.333 69.8336 291.5 70.5001C305.826 73.5731 315.659 81.9071 321 95.5001C324.048 109.021 320.548 120.355 310.5 129.5C308.206 131.653 305.54 133.32 302.5 134.5C298.119 136.682 293.453 137.682 288.5 137.5H272.5H243.5C235.826 137.666 228.159 137.5 220.5 137C219.099 136.59 217.766 136.09 216.5 135.5C206.11 130.114 199.444 121.78 196.5 110.5C195.236 101.311 197.236 92.9781 202.5 85.5001C206.278 79.2741 211.612 74.9411 218.5 72.5001C220.214 71.2621 222.214 70.5951 224.5 70.5001C235.666 69.8336 246.833 69.5001 258 69.5001Z" fill="#355667"/>
<path fill-rule="evenodd" clip-rule="evenodd" d="M249.5 96.5001C251.73 101.348 252.063 106.348 250.5 111.5C246.194 120.66 238.86 124.66 228.5 123.5C216.327 119.495 211.66 111.161 214.5 98.5001C216.424 94.9061 219.09 91.9061 222.5 89.5001C233.368 85.0401 242.368 87.3731 249.5 96.5001Z" fill="#09174A"/>
<path fill-rule="evenodd" clip-rule="evenodd" d="M285.5 87.5001C298.949 86.0221 306.283 91.8551 307.5 105C307.618 108.69 306.951 112.19 305.5 115.5C300.77 121.692 294.436 124.359 286.5 123.5C284.708 123.634 283.042 123.301 281.5 122.5C280.833 122.167 280.167 121.833 279.5 121.5C270.878 114.963 268.545 106.63 272.5 96.5001C275.455 91.5501 279.788 88.5501 285.5 87.5001Z" fill="#0B174A"/>
<path fill-rule="evenodd" clip-rule="evenodd" d="M258 69.5C246.833 69.5 235.666 69.8335 224.5 70.5C222.214 70.595 220.214 71.262 218.5 72.5C211.612 74.941 206.278 79.274 202.5 85.5C197.236 92.978 195.236 101.311 196.5 110.5C199.444 121.78 206.11 130.114 216.5 135.5C217.766 136.09 219.099 136.59 220.5 137C228.159 137.5 235.826 137.666 243.5 137.5H272.5H288.5C293.453 137.682 298.119 136.682 302.5 134.5C305.54 133.32 308.206 131.653 310.5 129.5C320.548 120.355 324.048 109.021 321 95.5C315.659 81.907 305.826 73.573 291.5 70.5C280.333 69.8335 269.167 69.5 258 69.5ZM289.121 87.2773C300.27 87.1802 306.397 93.0873 307.5 105C307.618 108.69 306.951 112.19 305.5 115.5C300.77 121.692 294.436 124.359 286.5 123.5C284.708 123.634 283.042 123.301 281.5 122.5C280.833 122.167 280.167 121.833 279.5 121.5C270.878 114.963 268.545 106.63 272.5 96.5C275.455 91.55 279.788 88.55 285.5 87.5C286.761 87.3614 287.968 87.2874 289.121 87.2773ZM232.141 87.3085C238.81 87.1612 244.597 90.2251 249.5 96.4999C251.73 101.348 252.063 106.348 250.5 111.5C246.194 120.66 238.86 124.66 228.5 123.5C216.327 119.495 211.66 111.161 214.5 98.4999C216.424 94.9059 219.09 91.9059 222.5 89.4999C225.896 88.1062 229.109 87.3755 232.141 87.3085Z" fill="url(#paint0_linear_4122_74)"/>
<path fill-rule="evenodd" clip-rule="evenodd" d="M215.5 38.5C226.172 38.333 236.839 38.5 247.5 39C251.092 41.971 251.425 45.304 248.5 49C237.5 49.667 226.5 49.667 215.5 49C211.565 45.504 211.565 42.004 215.5 38.5Z" fill="#11B4E7"/>
<path fill-rule="evenodd" clip-rule="evenodd" d="M201.5 38.5C202.721 39.028 203.887 39.695 205 40.5C205.978 43.669 205.478 46.503 203.5 49C191.171 49.5 178.838 49.667 166.5 49.5C161.657 46.447 161.324 42.947 165.5 39C177.495 38.5 189.495 38.333 201.5 38.5Z" fill="#11B4E7"/>
<path fill-rule="evenodd" clip-rule="evenodd" d="M104.5 78.5C106.017 78.511 107.184 79.177 108 80.5C109.12 83.999 108.287 86.833 105.5 89C80.836 89.5 56.169 89.667 31.5 89.5C29.765 87.765 28.432 85.765 27.5 83.5C27.876 81.617 28.876 80.117 30.5 79C55.164 78.5 79.831 78.333 104.5 78.5Z" fill="#11B4E7"/>
<path fill-rule="evenodd" clip-rule="evenodd" d="M76.4998 98.5C82.2398 100.797 82.9068 104.13 78.4998 108.5C53.1578 108.833 27.8248 108.5 2.49983 107.5C-0.335169 104.329 -0.00216961 101.496 3.49983 99C27.8308 98.5 52.1638 98.333 76.4998 98.5Z" fill="#11B4E7"/>
<path fill-rule="evenodd" clip-rule="evenodd" d="M42.4998 118.5C60.1698 118.333 77.8358 118.5 95.4998 119C98.0588 122.075 98.0588 125.075 95.4998 128C78.1668 128.667 60.8328 128.667 43.4998 128C39.8458 125.209 39.5128 122.043 42.4998 118.5Z" fill="#11B4E7"/>
<path fill-rule="evenodd" clip-rule="evenodd" d="M113.5 141.5C113.919 144.325 112.919 146.491 110.5 148C104.167 148.667 97.833 148.667 91.5 148C89.081 146.491 88.081 144.325 88.5 141.5C89.316 139.856 90.65 138.69 92.5 138C98.167 137.333 103.833 137.333 109.5 138C111.35 138.69 112.684 139.856 113.5 141.5Z" fill="#11B4E7"/>
<path fill-rule="evenodd" clip-rule="evenodd" d="M173.5 158.5C180.604 162.648 182.437 168.648 179 176.5C172.908 182.37 165.742 184.036 157.5 181.5C150.954 177.652 148.788 171.985 151 164.5C153.179 161.989 155.679 159.822 158.5 158C163.537 157.337 168.537 157.504 173.5 158.5Z" fill="#0A194E"/>
<path fill-rule="evenodd" clip-rule="evenodd" d="M287.5 159.5C285.895 162.378 284.561 165.378 283.5 168.5C274.116 185.559 261.782 200.226 246.5 212.5C240.196 216.99 233.863 221.49 227.5 226C222.264 227.339 216.93 227.839 211.5 227.5C201.111 222.111 193.445 214.111 188.5 203.5C188.5 201.5 188.5 199.5 188.5 197.5C188.5 184.5 188.5 171.5 188.5 158.5C221.671 158.168 254.671 158.502 287.5 159.5Z" fill="#0B1749"/>
<path fill-rule="evenodd" clip-rule="evenodd" d="M152.5 182.5C158.847 191.406 157.18 198.406 147.5 203.5C142.101 204.994 136.768 204.827 131.5 203C124.409 196.609 123.743 189.609 129.5 182C137.237 177.256 144.904 177.422 152.5 182.5Z" fill="#0D1950"/>
<path fill-rule="evenodd" clip-rule="evenodd" d="M285.5 183.5C291.848 182.884 296.682 185.218 300 190.5C301.814 197.23 299.98 202.564 294.5 206.5C291.865 207.811 289.531 209.478 287.5 211.5C273.178 210.509 268.845 203.509 274.5 190.5C277.716 187.396 281.382 185.063 285.5 183.5Z" fill="#0A194E"/>
<path fill-rule="evenodd" clip-rule="evenodd" d="M139.5 210.5C148.387 211.888 153.387 217.054 154.5 226C154.414 230.749 152.08 232.415 147.5 231C148.443 223.619 145.276 219.452 138 218.5C131.472 220.036 128.306 224.203 128.5 231C126.833 231.667 125.167 231.667 123.5 231C121.16 227.769 120.827 224.269 122.5 220.5C126.138 213.843 131.805 210.51 139.5 210.5Z" fill="#11194F"/>
<path fill-rule="evenodd" clip-rule="evenodd" d="M300.5 210.5C309.661 209.096 316.328 212.429 320.5 220.5C321.11 221.391 321.443 222.391 321.5 223.5C322.661 228.175 320.994 230.841 316.5 231.5C315.504 231.586 314.671 231.252 314 230.5C314.382 220.879 309.882 217.046 300.5 219C297.203 222.027 295.536 225.861 295.5 230.5C293.031 232.007 290.865 231.673 289 229.5C287.75 219.947 291.584 213.614 300.5 210.5Z" fill="#0C194F"/>
<path fill-rule="evenodd" clip-rule="evenodd" d="M208.5 234.5C209.756 234.461 210.756 234.961 211.5 236C203.549 245.287 194.382 253.12 184 259.5C182.989 258.944 182.156 258.278 181.5 257.5C178.769 251.937 175.435 246.771 171.5 242C177.434 236.066 183.434 230.066 189.5 224C195.117 228.372 201.451 231.872 208.5 234.5Z" fill="#0C184B"/>
<path fill-rule="evenodd" clip-rule="evenodd" d="M246.5 223.5C248.017 223.511 249.184 224.177 250 225.5C254.384 231.044 258.551 236.711 262.5 242.5C262.836 251.196 259.169 257.196 251.5 260.5C247.486 260.666 243.486 260.499 239.5 260C238.364 258.855 237.364 257.688 236.5 256.5C233.014 249.53 229.014 242.863 224.5 236.5C232.445 233.195 239.778 228.861 246.5 223.5Z" fill="#0C184C"/>
<path fill-rule="evenodd" clip-rule="evenodd" d="M90.4997 244.5C92.0497 245.441 93.7157 246.107 95.4997 246.5C97.9537 248.06 100.62 249.06 103.5 249.5C114.782 253.571 126.449 256.571 138.5 258.5C136.779 264.937 134.779 271.27 132.5 277.5C130.324 282.008 128.324 286.675 126.5 291.5C125.263 292.965 124.263 294.632 123.5 296.5C120.531 300.476 117.531 304.476 114.5 308.5C112.861 310.806 110.861 312.806 108.5 314.5C102.701 319.29 96.3667 323.29 89.4997 326.5C89.1687 298.995 89.5017 271.662 90.4997 244.5Z" fill="#0B1649"/>
<path fill-rule="evenodd" clip-rule="evenodd" d="M90.4998 244.5C89.5018 271.662 89.1688 298.995 89.4998 326.5C88.5208 323.375 88.1868 320.042 88.4998 316.5C88.4998 303.833 88.4998 291.167 88.4998 278.5C88.4998 268.5 88.4998 258.5 88.4998 248.5C88.2148 246.712 88.5478 245.045 89.4998 243.5C90.1068 243.624 90.4398 243.957 90.4998 244.5Z" fill="#2B4272"/>
<path fill-rule="evenodd" clip-rule="evenodd" d="M175.5 265.5C174.725 269.403 172.725 272.403 169.5 274.5C162.676 276.111 156.009 275.777 149.5 273.5C141.197 262.703 143.197 254.537 155.5 249C168.366 247.241 175.033 252.741 175.5 265.5Z" fill="#0C194C"/>
<path fill-rule="evenodd" clip-rule="evenodd" d="M258.5 264.5C263.076 264.568 266.576 266.568 269 270.5C269.499 275.823 269.666 281.156 269.5 286.5C268.31 288.869 266.643 290.869 264.5 292.5C259.26 293.449 253.927 293.782 248.5 293.5C244.862 293.262 242.029 291.596 240 288.5C239.333 282.5 239.333 276.5 240 270.5C241.167 268 243 266.167 245.5 265C249.821 264.501 254.154 264.334 258.5 264.5Z" fill="#0C194B"/>
<path fill-rule="evenodd" clip-rule="evenodd" d="M258.5 299.5C271.465 302.773 282.465 309.44 291.5 319.5C292.811 322.135 294.478 324.469 296.5 326.5C297.758 328.687 298.758 331.02 299.5 333.5C273.005 334.498 246.339 334.831 219.5 334.5C218.209 334.737 217.209 334.404 216.5 333.5C221.614 323.159 225.947 312.492 229.5 301.5C229.611 300.883 229.944 300.383 230.5 300C239.827 299.5 249.161 299.334 258.5 299.5Z" fill="#0B184A"/>
<defs>
<linearGradient id="paint0_linear_4122_74" x1="303.622" y1="59.0077" x2="214.575" y2="148.055" gradientUnits="userSpaceOnUse">
<stop offset="0.0895062" stop-color="#004455"/>
<stop offset="0.583333" stop-color="#11B4E7"/>
</linearGradient>
</defs>
</svg>
